<?xml version="1.0" encoding="iso-8859-1"?>
<svg width="244" height="50" viewBox="0 0 244 50" fill="none" xmlns="http://www.w3.org/2000/svg">
<g clip-path="url(#clip0_73_154)">
<path d="M22.9627 21.7458C22.71 19.9462 22.1372 18.1803 21.3116 16.549C21.1263 16.1622 20.7725 16.0949 20.4524 16.2126C20.3682 16.2126 20.3008 16.2294 20.2166 16.2463C17.6389 17.0872 15.0613 18.0794 12.9891 19.879C10.4451 22.0989 9.28265 25.2944 8.99624 28.5907C8.76038 31.3993 9.11417 34.2416 9.65329 36.9997C7.51368 37.6724 5.30668 38.1097 3.09967 38.4461C2.67849 38.5133 2.45948 39.0347 2.56056 39.3879C2.67849 39.8251 3.09967 39.9933 3.50401 39.926C7.04195 39.4047 10.563 38.547 13.8314 37.0165C16.1058 35.957 18.2791 34.5106 19.9302 32.5766C21.2443 31.0461 22.2383 29.2298 22.7268 27.2621C23.1986 25.4625 23.2322 23.5957 22.9627 21.7458ZM21.4801 22.1494C21.4801 22.2167 21.497 22.2671 21.4801 22.1494V22.1494ZM12.7364 22.3848C12.669 22.4857 12.7195 22.4185 12.7364 22.3848V22.3848ZM21.5475 25.1094C21.5307 25.2271 21.5307 25.328 21.5138 25.4457C21.5138 25.4794 21.497 25.5803 21.497 25.6307C21.4633 25.8325 21.4296 26.0512 21.3959 26.253C21.3116 26.6903 21.2106 27.1107 21.0758 27.5312C21.0084 27.733 20.941 27.9348 20.8736 28.1366C20.8399 28.2375 20.7894 28.3384 20.7557 28.4393C20.7557 28.4561 20.7388 28.473 20.7388 28.4898C20.7051 28.5571 20.6883 28.6075 20.6546 28.6748C20.4693 29.0952 20.2503 29.5157 19.9976 29.9193C19.8796 30.1211 19.7448 30.3061 19.6269 30.5079C19.5595 30.592 19.509 30.6929 19.4416 30.777C19.4079 30.8275 19.3574 30.8779 19.3237 30.9284C19.3068 30.9452 19.2563 31.0125 19.2226 31.0629C17.7569 32.9297 15.9879 34.2079 13.882 35.3011C13.3934 35.5534 12.888 35.7888 12.3826 36.0074C13.5282 34.662 14.5727 33.2157 15.4488 31.6852C15.533 31.5507 15.6004 31.3993 15.6846 31.2648C16.2911 31.1975 16.8808 30.8948 17.3694 30.5584C18.1275 30.037 18.7677 29.3811 19.2563 28.6243C19.4247 28.3721 19.3237 27.9684 19.0541 27.8339C18.7677 27.6825 18.4308 27.7666 18.2623 28.0357C18.2117 28.1198 18.1443 28.2207 18.077 28.3048C18.0433 28.3384 18.0264 28.3721 17.9927 28.4057C17.9759 28.4225 17.959 28.4393 17.959 28.4562C17.8411 28.6075 17.7063 28.7589 17.5715 28.8934C17.4368 29.028 17.2851 29.1625 17.1335 29.2971C17.0998 29.3307 17.0661 29.3475 17.0324 29.3811C17.0156 29.398 17.0156 29.398 16.9987 29.4148C16.9313 29.4652 16.8471 29.5157 16.7797 29.583C16.6786 29.6502 16.5607 29.7175 16.4428 29.7848C17.0324 28.5571 17.5547 27.2789 18.0264 25.9839C18.4476 24.8235 18.8519 23.6462 19.2563 22.4857C19.509 21.7794 18.3802 21.4767 18.1444 22.183C17.6895 23.478 17.2514 24.773 16.7797 26.068C16.7629 26.0007 16.746 25.9503 16.746 25.883C16.746 25.8325 16.7292 25.7989 16.7292 25.7484C16.7292 25.6644 16.7123 25.5971 16.7123 25.513C16.6786 24.7394 16.7629 23.9826 16.8808 23.2257C16.9313 22.923 16.7966 22.6035 16.4765 22.5194C16.2069 22.4521 15.8026 22.6203 15.7689 22.923C15.5499 24.4535 15.3308 26.1184 16.0721 27.548C16.089 27.5984 16.1227 27.6321 16.1564 27.6657C16.1058 27.7834 16.0553 27.9012 16.0216 28.0189C15.3814 29.4989 14.6401 30.9116 13.764 32.2738C13.4608 31.2311 13.3934 30.1211 13.4439 29.028C13.4945 27.6321 13.764 26.2362 14.2863 24.9412C14.4042 24.6553 14.1515 24.3021 13.882 24.2348C13.545 24.1339 13.2923 24.3525 13.1744 24.6385C12.6184 26.0344 12.3489 27.548 12.2983 29.0448C12.2478 30.4407 12.3657 31.9207 12.8711 33.2325C12.9048 33.3166 12.9385 33.3838 12.9891 33.4343C12.9554 33.4679 12.9385 33.5184 12.9048 33.552C12.3152 34.3593 11.675 35.1497 11.0179 35.8897C10.6304 33.7875 10.4114 31.6348 10.4957 29.4989C10.5294 28.5402 10.6304 27.733 10.8158 26.8248C10.9 26.4043 11.0179 26.0007 11.1359 25.5971C11.1864 25.4289 11.2538 25.2439 11.3043 25.0757C11.338 24.9748 11.3717 24.8907 11.4054 24.7898C11.4223 24.7562 11.4728 24.6385 11.4728 24.6048C11.7592 23.9489 12.0962 23.3267 12.5005 22.7548C12.551 22.6876 12.6016 22.6035 12.6521 22.5362C12.669 22.5026 12.6858 22.4857 12.7027 22.4689C12.8037 22.3344 12.9217 22.1998 13.0396 22.0653C13.2586 21.8298 13.4776 21.5944 13.7135 21.3758C13.9494 21.1571 14.2021 20.9385 14.4548 20.7367C14.4716 20.7199 14.4885 20.7199 14.4885 20.703C14.4885 20.703 14.5053 20.6862 14.5222 20.6862C14.5896 20.6358 14.6569 20.5853 14.7243 20.5349C14.8928 20.3499 15.0276 20.249 15.1624 20.1649C15.6846 19.8117 16.2406 19.509 16.8134 19.2231C17.1335 19.0717 17.4536 18.9203 17.7737 18.7858C17.8243 18.769 17.8411 18.7521 17.8411 18.7521C17.8411 18.7521 17.8579 18.7353 17.8916 18.7353C17.9759 18.7017 18.0601 18.6681 18.1444 18.6344C18.3128 18.5671 18.4644 18.4999 18.6329 18.4494C19.1552 18.2476 19.6943 18.0626 20.2334 17.8944C20.2671 17.9617 20.284 18.0122 20.3177 18.0794C20.3345 18.1131 20.3682 18.214 20.4019 18.2644C20.5367 18.6008 20.6714 18.9203 20.7725 19.2567C21.0252 20.0135 21.2274 20.7703 21.379 21.5439C21.4127 21.7289 21.4464 21.9308 21.4801 22.1158C21.4801 22.1326 21.4801 22.1326 21.4801 22.1494C21.4801 22.183 21.497 22.2335 21.497 22.2671C21.5138 22.368 21.5138 22.4857 21.5307 22.5867C21.5644 23.0071 21.5981 23.4107 21.5981 23.8312C21.5981 24.2685 21.5812 24.6889 21.5475 25.1094ZM16.746 25.8494C16.746 25.8662 16.746 25.8662 16.746 25.8494V25.8494Z" fill="#D96A25"/>
<path d="M22.5422 15.3884C22.7949 15.8762 23.0308 16.3807 23.2498 16.8852C23.2835 16.9525 23.3003 17.003 23.334 17.0702C23.4183 17.2721 23.2666 16.9189 23.3509 17.1207C23.4014 17.2384 23.452 17.3561 23.5025 17.4907C23.6036 17.743 23.7047 17.9952 23.7889 18.2643C24.1596 19.2734 24.4628 20.3161 24.6818 21.3588C24.7324 21.5943 24.7661 21.8297 24.8166 22.0484C24.8335 22.1829 24.8671 22.3006 24.884 22.4352C24.9008 22.5025 24.9008 22.5697 24.9177 22.6202C24.9345 22.7547 24.9008 22.5193 24.9345 22.7379C25.0019 23.2593 25.0356 23.7974 25.0525 24.3188C25.0693 24.8233 25.0693 25.3279 25.0356 25.8324C25.0188 26.0847 25.0019 26.337 24.9682 26.5892C24.9682 26.6565 24.9514 26.707 24.9514 26.7742C24.9682 26.5724 24.9514 26.7911 24.9514 26.8247C24.9345 26.9761 24.9008 27.1106 24.884 27.262C24.7998 27.7665 24.6818 28.2542 24.5302 28.742C24.4628 28.9942 24.3786 29.2297 24.2943 29.4819C24.2438 29.5997 24.2101 29.7174 24.1596 29.8519C24.1427 29.9192 24.109 29.9697 24.0922 30.0369C24.0753 30.0706 24.0585 30.121 24.0416 30.1547C24.0753 30.0706 24.0753 30.0706 24.0416 30.1547C23.6036 31.1637 23.0308 32.1224 22.3737 32.9969C22.239 33.1819 22.4748 32.8792 22.3232 33.0642C22.2727 33.1146 22.239 33.1819 22.1884 33.2324C22.121 33.3333 22.0368 33.4174 21.9526 33.5015C21.7504 33.7369 21.5314 33.9724 21.3124 34.2078C20.8743 34.6619 20.4026 35.0992 19.8972 35.5196C18.9032 36.3437 17.707 37.1341 16.494 37.79C12.8718 39.7578 8.82848 40.8677 4.78512 41.6246C4.38078 41.7087 4.14492 42.1964 4.246 42.5664C4.36393 43.0036 4.78512 43.1886 5.18945 43.1045C9.03065 42.3814 12.8381 41.3218 16.3424 39.5896C18.8695 38.345 21.2618 36.6969 23.0813 34.5274C24.5807 32.7446 25.6927 30.6592 26.2149 28.3888C26.7204 26.2024 26.7035 23.932 26.3497 21.7288C25.9791 19.5089 25.2209 17.373 24.2606 15.3548C24.1427 15.1025 24.0248 14.8671 23.89 14.6148C23.4183 13.7234 22.0873 14.4971 22.5422 15.3884Z" fill="#468341"/>
<path d="M26.8715 16.6672C27.3095 17.8613 27.6802 19.089 27.9666 20.3335C28.0677 20.7708 28.1519 21.2081 28.2193 21.6453C28.253 21.8808 28.2867 22.1331 28.3372 22.3685C28.3372 22.3517 28.3204 22.2003 28.3372 22.3853C28.3372 22.4526 28.3541 22.5031 28.3541 22.5703C28.3709 22.7049 28.3878 22.8226 28.4046 22.9571C28.5057 24.0167 28.5562 25.0762 28.5057 26.1526C28.4889 26.4385 28.472 26.7244 28.4552 27.0103C28.4383 27.1448 28.4215 27.2962 28.4046 27.4307C28.4046 27.498 28.3878 27.5485 28.3878 27.6157C28.3878 27.6494 28.3709 27.683 28.3709 27.7166C28.3541 27.9016 28.4046 27.5316 28.3709 27.7166C28.2867 28.3053 28.1856 28.8771 28.034 29.4489C27.8823 30.0375 27.7139 30.6262 27.4949 31.198C27.4443 31.3493 27.3938 31.4839 27.3264 31.6352C27.2927 31.7025 27.2758 31.7866 27.2422 31.8539C27.2253 31.8875 27.1916 31.9884 27.259 31.8371C27.2422 31.8875 27.2253 31.9211 27.2085 31.9716C27.0737 32.2743 26.9389 32.5602 26.7873 32.863C26.484 33.4516 26.1302 34.0402 25.7596 34.5952C25.6753 34.7298 25.5743 34.8643 25.49 34.982C25.4395 35.0493 25.3889 35.1166 25.3384 35.1838C25.3047 35.2175 25.2879 35.2511 25.2542 35.2848C25.1194 35.4529 25.3552 35.167 25.2205 35.3352C25.0015 35.6211 24.7656 35.8902 24.5297 36.1593C24.0243 36.7311 23.4683 37.2693 22.8955 37.7738C22.2385 38.3456 21.7499 38.7324 21.0086 39.2202C17.4202 41.6588 13.2589 43.0547 9.06387 43.9629C8.40683 44.1142 7.74978 44.2319 7.09274 44.3497C6.6884 44.4169 6.45254 44.9215 6.55362 45.2915C6.67155 45.7288 7.09273 45.9137 7.49707 45.8297C12.0795 44.9888 16.662 43.6433 20.6717 41.2383C23.4515 39.5565 25.9449 37.3197 27.6128 34.5279C28.9606 32.2743 29.7356 29.7348 29.9883 27.1112C30.1904 24.9417 30.0388 22.7553 29.6176 20.6194C29.3481 19.2235 28.9606 17.8613 28.4889 16.5327C28.4552 16.4317 28.4215 16.3477 28.3878 16.2467C28.2361 15.8599 27.8655 15.5908 27.4443 15.7086C27.04 15.8263 26.7199 16.2804 26.8715 16.6672Z" fill="#468341"/>
<path d="M31.6734 25.8324C31.6565 26.4547 31.6229 27.077 31.5723 27.6824C31.5555 28.0188 31.5218 28.3383 31.4881 28.6747C31.4712 28.8429 31.4544 29.011 31.4207 29.1792C31.387 29.4315 31.4375 29.0783 31.4038 29.297C31.387 29.381 31.3701 29.482 31.3701 29.566C31.2522 30.306 31.1006 31.046 30.9153 31.7524C30.8142 32.1392 30.6962 32.526 30.5615 32.896C30.4941 33.081 30.4267 33.2828 30.3593 33.4678C30.3256 33.5519 30.2919 33.6528 30.2582 33.7369C30.2414 33.7706 30.2245 33.8042 30.2077 33.8378C30.1571 33.9556 30.2582 33.7201 30.174 33.9219C29.8202 34.7124 29.4159 35.486 28.9441 36.226C28.6746 36.6464 28.405 37.0501 28.1018 37.4369C28.186 37.3192 28.0007 37.5714 27.967 37.6051C27.8996 37.6892 27.8154 37.7901 27.748 37.8742C27.5795 38.076 27.411 38.2778 27.2257 38.4628C25.5915 40.2287 23.7551 41.5741 21.6661 42.7514C18.3977 44.6014 14.7924 45.8291 11.1702 46.7541C10.2099 47.0063 10.6142 48.4863 11.5745 48.2341C17.4037 46.7373 23.4687 44.4164 27.7985 40.0773C30.4098 37.4537 32.1283 34.1069 32.7853 30.4742C33.0549 28.927 33.1728 27.3629 33.2234 25.7988C33.257 24.8402 31.7071 24.8402 31.6734 25.8324Z" fill="#468341"/>
<path d="M0.774978 29.0784C2.59449 28.8765 4.32977 28.3216 5.71125 27.077C6.84002 26.0511 7.5813 24.7057 8.32259 23.3939C9.13126 21.9475 9.97362 20.5012 11.1192 19.2735C12.1132 18.2139 13.1241 17.4571 14.4045 16.7507C16.4262 15.6576 18.6668 15.0185 20.9075 14.5476C21.3119 14.4635 21.5477 13.9758 21.4467 13.6058C21.3287 13.1853 20.9075 12.9835 20.5032 13.0676C16.9316 13.7908 13.3094 15.0185 10.6138 17.558C9.41766 18.6848 8.44052 20.0471 7.615 21.4766C6.87371 22.738 6.16613 24.218 5.29006 25.2607C4.1276 26.6397 2.61134 27.3293 0.75813 27.5311C0.353794 27.5816 0 27.8506 0 28.3047C0 28.6915 0.353794 29.112 0.774978 29.0784Z" fill="#468341"/>
<path d="M1.04517 25.3449C3.30271 24.9918 4.70104 23.1081 5.76242 21.2413C6.28469 20.3163 6.77326 19.3409 7.36292 18.4495C7.91888 17.6086 8.59278 16.8014 9.31721 16.0782C10.8672 14.5141 12.7541 13.3705 14.8094 12.5464C15.8877 12.1091 16.9996 11.7055 18.1284 11.4532C18.9707 11.2682 19.6446 11.1841 20.5712 11.201C21.5484 11.2178 22.5761 11.386 23.4353 11.8064C24.4798 12.311 25.2211 13.0846 25.7265 14.1441C25.9118 14.5141 26.451 14.615 26.7879 14.4132C27.1754 14.1946 27.2428 13.7405 27.0575 13.3537C26.0635 11.3187 24.1092 10.091 21.8853 9.77143C19.8805 9.48553 17.9262 9.8387 16.0056 10.461C13.6133 11.2682 11.322 12.3446 9.35091 13.9423C7.64933 15.3382 6.26784 17.1041 5.20646 19.0382C4.63365 20.0809 4.07769 21.2077 3.35325 22.1327C2.62882 23.0577 1.78645 23.6799 0.623985 23.8649C0.219649 23.9322 -0.0162135 24.4536 0.0848706 24.8068C0.202802 25.244 0.623985 25.4122 1.04517 25.3449Z" fill="#468341"/>
<path d="M5.50939 14.6153C7.649 12.3953 10.2772 10.6126 13.1075 9.43534C14.5733 8.8299 16.1064 8.39263 17.6732 8.14036C19.0378 7.92172 20.5204 7.82081 21.885 8.05627C26.3832 8.84671 29.1294 12.9503 30.3761 16.9698C30.713 18.063 30.9826 19.173 31.1679 20.283C31.2184 20.5521 31.269 20.8211 31.3027 21.0902C31.3195 21.2248 31.3364 21.3593 31.3701 21.4939C31.3701 21.5443 31.3869 21.5948 31.3869 21.6452C31.4206 21.8975 31.3701 21.4939 31.4038 21.7461C31.4711 22.2339 31.5217 22.7216 31.5722 23.2093C31.6059 23.6298 31.8923 23.9829 32.3472 23.9829C32.7347 23.9829 33.1559 23.6298 33.1222 23.2093C32.7178 18.9375 31.7744 14.4471 29.1125 10.9658C27.5794 8.98126 25.524 7.46764 23.1149 6.74446C21.6997 6.30719 20.1497 6.30719 18.7009 6.45855C17.0161 6.60992 15.3314 6.96309 13.7309 7.53491C10.2435 8.76262 6.99196 10.8312 4.41431 13.5053C3.72357 14.2453 4.81865 15.3385 5.50939 14.6153Z" fill="#468341"/>
<path d="M10.0915 7.2822C14.6234 5.21358 20.3852 3.21223 25.2541 5.38176C29.7018 7.36629 32.4479 11.6212 33.7451 16.1621C34.5201 18.8698 34.8739 21.6616 35.0592 24.4534C35.0929 24.8739 35.3962 25.227 35.8342 25.227C36.2386 25.227 36.6429 24.8739 36.6092 24.4534C36.2554 19.3239 35.413 13.8917 32.4311 9.55263C30.9485 7.38311 28.9605 5.54994 26.6356 4.33904C24.3949 3.16178 21.8509 2.79178 19.3407 2.9936C15.8364 3.27951 12.4838 4.50722 9.29966 5.95357C8.92902 6.12175 8.82793 6.67675 9.0301 6.99629C9.24912 7.38311 9.704 7.45038 10.0915 7.2822Z" fill="#468341"/>
<path d="M18.2286 1.73251C22.1204 1.17751 26.2816 1.78296 29.4995 4.13748C30.3587 4.75975 31.1 5.53338 31.757 6.35746C32.0097 6.69382 32.5825 6.62655 32.8521 6.35746C33.1722 6.03792 33.1048 5.60065 32.8521 5.26429C30.1902 1.86705 25.9784 0.185247 21.7329 0.00024836C20.4188 -0.0502057 19.1215 0.0507024 17.8243 0.235701C17.4031 0.302973 17.1841 0.824332 17.2852 1.17751C17.4031 1.6316 17.8074 1.79978 18.2286 1.73251Z" fill="#468341"/>
<path d="M35.0596 26.9599C35.0765 30.6767 34.1499 34.3598 32.3135 37.6057C30.3255 41.1038 27.3604 43.9461 23.8056 45.8802C21.4807 47.1415 18.9536 47.9824 16.3759 48.5038C15.9716 48.5879 15.7357 49.0756 15.8368 49.4456C15.9548 49.866 16.3759 50.0678 16.7803 49.9838C21.3964 49.0588 25.8104 47.0406 29.2978 43.8452C32.3135 41.0702 34.5374 37.4711 35.683 33.5525C36.3063 31.4167 36.6096 29.1967 36.6096 26.9767C36.6096 25.9676 35.0596 25.9676 35.0596 26.9599Z" fill="#468341"/>
<path d="M2.13977 36.344C3.8245 36.2935 5.52608 36.0581 7.14342 35.5704C7.53091 35.4526 7.81732 35.0322 7.68254 34.6286C7.56461 34.2417 7.14342 33.9558 6.73909 34.0904C5.18913 34.5613 3.74026 34.7799 2.13977 34.8136C1.73543 34.8136 1.34794 35.1499 1.36479 35.5704C1.38164 35.974 1.70173 36.344 2.13977 36.344Z" fill="#468341"/>
<path d="M1.28039 32.7955C3.08306 32.7451 4.90257 32.4423 6.60415 31.921C7.00849 31.8033 7.26119 31.3828 7.14326 30.9792C7.04218 30.5924 6.5873 30.3233 6.19981 30.441C4.56562 30.9455 2.96512 31.2314 1.28039 31.2651C0.876054 31.2819 0.488566 31.6183 0.505413 32.0387C0.52226 32.4423 0.84236 32.8123 1.28039 32.7955Z" fill="#468341"/>
<path d="M2.74654 16.4655C2.17373 17.3737 1.63461 18.2987 1.24712 19.2909C0.994414 19.93 0.859635 20.6027 0.724856 21.2754C0.64062 21.6623 0.842788 22.1332 1.26397 22.2173C1.65146 22.3014 2.12319 22.0995 2.20742 21.6791C2.3422 21.0232 2.47698 20.3673 2.71284 19.745C2.72969 19.7114 2.79708 19.4927 2.81393 19.4927C2.79708 19.4927 2.74654 19.6441 2.81393 19.4927C2.83077 19.4591 2.84762 19.4087 2.86447 19.375C2.96555 19.1732 3.06664 18.9714 3.16772 18.7696C3.43728 18.2482 3.75738 17.7437 4.06063 17.2391C4.27964 16.9028 4.14487 16.3814 3.79107 16.1796C3.42043 15.9946 2.96555 16.1123 2.74654 16.4655Z" fill="#468341"/>
<path d="M56.9781 11.3357C58.3259 12.412 59.2019 13.892 59.6063 15.742H55.445C55.1417 15.002 54.67 14.4134 54.0298 13.9761C53.3896 13.5556 52.6483 13.337 51.7722 13.337C50.6266 13.337 49.7 13.7575 48.9924 14.5984C48.2848 15.4393 47.931 16.5661 47.931 17.962C47.931 19.3747 48.2848 20.4847 48.9924 21.3256C49.7 22.1665 50.6266 22.5701 51.7722 22.5701C52.6483 22.5701 53.3896 22.3515 54.0298 21.931C54.67 21.5106 55.1417 20.9219 55.445 20.182H59.6063C59.2019 22.0151 58.3259 23.4783 56.9781 24.5715C55.6303 25.6646 53.9119 26.2028 51.8565 26.2028C50.2728 26.2028 48.8913 25.8496 47.6952 25.1601C46.499 24.4705 45.5724 23.4951 44.9322 22.2338C44.2752 20.9892 43.9551 19.5597 43.9551 17.9452C43.9551 16.3474 44.2752 14.9179 44.9322 13.6566C45.5893 12.412 46.499 11.4366 47.6952 10.7302C48.8913 10.0407 50.2728 9.6875 51.8565 9.6875C53.9119 9.72114 55.6134 10.2593 56.9781 11.3357Z" fill="#468341"/>
<path d="M69.1927 13.7909C69.9003 14.245 70.4225 14.8336 70.7595 15.6072V13.2863H74.6681V26.068H70.7595V23.7472C70.4225 24.504 69.9003 25.1094 69.1927 25.5635C68.4851 26.0008 67.6427 26.2362 66.6656 26.2362C65.6042 26.2362 64.6607 25.9671 63.8352 25.4458C63.0097 24.9244 62.3358 24.1676 61.8641 23.1585C61.3755 22.1663 61.1396 21.0058 61.1396 19.6772C61.1396 18.3318 61.3755 17.1713 61.8641 16.179C62.3527 15.1868 63.0097 14.43 63.8352 13.9086C64.6607 13.3873 65.621 13.1182 66.6656 13.1182C67.6427 13.135 68.4851 13.3536 69.1927 13.7909ZM65.9074 17.3899C65.402 17.9449 65.1325 18.7017 65.1325 19.6772C65.1325 20.6526 65.3852 21.4263 65.9074 21.9644C66.4129 22.5194 67.1036 22.7885 67.946 22.7885C68.7715 22.7885 69.4454 22.5026 69.9845 21.9476C70.4899 21.3926 70.7595 20.6358 70.7595 19.6772C70.7595 18.7186 70.4899 17.9618 69.9676 17.3899C69.4454 16.8349 68.7715 16.549 67.9291 16.549C67.0868 16.5659 66.4129 16.8349 65.9074 17.3899Z" fill="#468341"/>
<path d="M83.1756 13.8419C83.9506 13.3878 84.793 13.1523 85.6859 13.1523V17.34H84.574C83.5294 17.34 82.7207 17.5587 82.1479 18.0128C81.5751 18.45 81.2887 19.2068 81.2887 20.2495V26.0686H77.3633V13.2869H81.2887V15.6919C81.7773 14.9182 82.4006 14.296 83.1756 13.8419Z" fill="#468341"/>
<path d="M98.1695 13.9262C98.995 14.4475 99.6689 15.2043 100.141 16.1966C100.629 17.1889 100.865 18.3493 100.865 19.6947C100.865 21.0234 100.629 22.1838 100.141 23.1761C99.6521 24.1683 98.995 24.9252 98.1695 25.4633C97.3271 25.9847 96.3837 26.2538 95.3392 26.2538C94.362 26.2538 93.5196 26.0351 92.8121 25.5811C92.1045 25.1438 91.599 24.5383 91.2789 23.7647V26.0856H87.3535V9.11621H91.2789V15.608C91.599 14.8512 92.1045 14.2457 92.8121 13.7916C93.5196 13.3544 94.362 13.1357 95.3392 13.1357C96.3837 13.1357 97.3271 13.388 98.1695 13.9262ZM92.0371 17.4075C91.5148 17.9625 91.2453 18.7193 91.2453 19.6947C91.2453 20.6366 91.5148 21.3934 92.0371 21.9652C92.5593 22.537 93.2501 22.8061 94.0756 22.8061C94.918 22.8061 95.5919 22.537 96.1141 21.982C96.6196 21.427 96.8891 20.6702 96.8891 19.6947C96.8891 18.7193 96.6364 17.9457 96.1141 17.4075C95.6087 16.8525 94.918 16.5834 94.0756 16.5834C93.2501 16.5666 92.5593 16.8525 92.0371 17.4075Z" fill="#468341"/>
<path d="M112.305 13.9262C113.299 14.4475 114.091 15.2044 114.664 16.2134C115.236 17.2057 115.523 18.3661 115.523 19.6948C115.523 21.0234 115.236 22.1838 114.664 23.1761C114.091 24.1684 113.299 24.9252 112.305 25.4634C111.311 25.9847 110.165 26.2538 108.902 26.2538C107.638 26.2538 106.493 25.9847 105.482 25.4634C104.471 24.942 103.679 24.1852 103.106 23.1761C102.533 22.1838 102.247 21.0234 102.247 19.6948C102.247 18.3661 102.533 17.2057 103.106 16.2134C103.679 15.2212 104.471 14.4644 105.482 13.9262C106.493 13.4048 107.638 13.1357 108.902 13.1357C110.165 13.1357 111.294 13.388 112.305 13.9262ZM106.998 17.3403C106.493 17.8784 106.223 18.6689 106.223 19.6948C106.223 20.7207 106.476 21.4943 106.998 22.0325C107.503 22.5707 108.144 22.8397 108.885 22.8397C109.626 22.8397 110.266 22.5707 110.772 22.0325C111.277 21.4943 111.53 20.7207 111.53 19.6948C111.53 18.6689 111.277 17.8952 110.772 17.3403C110.266 16.8021 109.643 16.533 108.885 16.533C108.127 16.533 107.52 16.7853 106.998 17.3403Z" fill="#468341"/>
<path d="M129.186 14.6157C130.045 15.5912 130.483 16.9366 130.483 18.6521V26.0688H126.558V19.1061C126.558 18.2484 126.339 17.5757 125.884 17.1048C125.429 16.6171 124.84 16.3816 124.081 16.3816C123.29 16.3816 122.649 16.6339 122.195 17.1384C121.723 17.643 121.487 18.3662 121.487 19.2911V26.0688H117.562V13.2871H121.487V15.6248C121.858 14.868 122.397 14.2626 123.121 13.8085C123.846 13.3712 124.705 13.1357 125.682 13.1357C127.165 13.1526 128.327 13.6403 129.186 14.6157Z" fill="#468341"/>
<path d="M148.257 9.87305V12.9844H141.602V16.533H146.741V19.5098H141.602V26.0688H137.677V9.87305H148.257Z" fill="#468341"/>
<path d="M159.679 13.9262C160.673 14.4475 161.465 15.2044 162.038 16.2134C162.61 17.2057 162.897 18.3661 162.897 19.6948C162.897 21.0234 162.61 22.1838 162.038 23.1761C161.465 24.1684 160.673 24.9252 159.679 25.4634C158.685 25.9847 157.539 26.2538 156.276 26.2538C155.012 26.2538 153.867 25.9847 152.856 25.4634C151.845 24.942 151.053 24.1852 150.48 23.1761C149.908 22.1838 149.621 21.0234 149.621 19.6948C149.621 18.3661 149.908 17.2057 150.48 16.2134C151.053 15.2212 151.845 14.4644 152.856 13.9262C153.867 13.4048 155.012 13.1357 156.276 13.1357C157.539 13.1357 158.668 13.388 159.679 13.9262ZM154.372 17.3403C153.867 17.8784 153.597 18.6689 153.597 19.6948C153.597 20.7207 153.85 21.4943 154.372 22.0325C154.877 22.5707 155.518 22.8397 156.259 22.8397C157 22.8397 157.64 22.5707 158.146 22.0325C158.651 21.4943 158.904 20.7207 158.904 19.6948C158.904 18.6689 158.651 17.8952 158.146 17.3403C157.64 16.8021 157.017 16.533 156.259 16.533C155.518 16.5162 154.877 16.7853 154.372 17.3403Z" fill="#468341"/>
<path d="M174.336 13.9262C175.33 14.4475 176.122 15.2044 176.695 16.2134C177.268 17.2057 177.554 18.3661 177.554 19.6948C177.554 21.0234 177.268 22.1838 176.695 23.1761C176.122 24.1684 175.33 24.9252 174.336 25.4634C173.342 25.9847 172.197 26.2538 170.933 26.2538C169.669 26.2538 168.524 25.9847 167.513 25.4634C166.502 24.942 165.71 24.1852 165.138 23.1761C164.565 22.1838 164.278 21.0234 164.278 19.6948C164.278 18.3661 164.565 17.2057 165.138 16.2134C165.71 15.2212 166.502 14.4644 167.513 13.9262C168.524 13.4048 169.669 13.1357 170.933 13.1357C172.197 13.1357 173.325 13.388 174.336 13.9262ZM169.029 17.3403C168.524 17.8784 168.254 18.6689 168.254 19.6948C168.254 20.7207 168.507 21.4943 169.029 22.0325C169.535 22.5707 170.175 22.8397 170.916 22.8397C171.674 22.8397 172.298 22.5707 172.803 22.0325C173.308 21.4943 173.561 20.7207 173.561 19.6948C173.561 18.6689 173.308 17.8952 172.803 17.3403C172.298 16.8021 171.674 16.533 170.916 16.533C170.175 16.5162 169.552 16.7853 169.029 17.3403Z" fill="#468341"/>
<path d="M186.855 22.7045V26.0681H185.086C183.586 26.0681 182.424 25.6981 181.581 24.9581C180.739 24.2181 180.335 22.9904 180.335 21.2749V16.5827H178.616V13.2864H180.335V10.1582H184.26V13.2864H186.838V16.5827H184.26V21.3422C184.26 21.8467 184.361 22.1999 184.563 22.4017C184.765 22.6035 185.119 22.7045 185.608 22.7045H186.855Z" fill="#468341"/>
<path d="M199.878 13.9262C200.703 14.4475 201.377 15.2044 201.849 16.1966C202.337 17.1889 202.573 18.3493 202.573 19.6948C202.573 21.0234 202.337 22.1838 201.849 23.1761C201.36 24.1684 200.703 24.9252 199.878 25.4634C199.052 25.9847 198.092 26.2538 197.047 26.2538C196.07 26.2538 195.228 26.0352 194.52 25.5811C193.812 25.1438 193.307 24.5384 192.987 23.7647V32.1738H189.062V13.2871H192.987V15.608C193.307 14.8512 193.812 14.2457 194.52 13.7916C195.228 13.3544 196.07 13.1357 197.047 13.1357C198.092 13.1357 199.052 13.388 199.878 13.9262ZM193.745 17.4075C193.223 17.9625 192.953 18.7193 192.953 19.6948C192.953 20.6366 193.223 21.3934 193.745 21.9652C194.267 22.537 194.958 22.8061 195.784 22.8061C196.626 22.8061 197.3 22.537 197.822 21.982C198.328 21.427 198.597 20.6702 198.597 19.6948C198.597 18.7193 198.344 17.9457 197.822 17.4075C197.317 16.8525 196.626 16.5834 195.784 16.5834C194.958 16.5666 194.284 16.8525 193.745 17.4075Z" fill="#468341"/>
<path d="M210.441 13.8419C211.216 13.3878 212.058 13.1523 212.951 13.1523V17.34H211.822C210.777 17.34 209.969 17.5587 209.396 18.0128C208.823 18.45 208.537 19.2068 208.537 20.2495V26.0686H204.611V13.2869H208.537V15.6919C209.025 14.9182 209.666 14.296 210.441 13.8419Z" fill="#468341"/>
<path d="M214.872 8.20777C215.293 7.82096 215.866 7.61914 216.573 7.61914C217.281 7.61914 217.837 7.82096 218.275 8.20777C218.696 8.59459 218.915 9.08231 218.915 9.68776C218.915 10.2764 218.696 10.7473 218.275 11.1341C217.854 11.5209 217.281 11.7227 216.573 11.7227C215.866 11.7227 215.31 11.5209 214.872 11.1341C214.45 10.7473 214.231 10.2596 214.231 9.68776C214.231 9.09913 214.45 8.6114 214.872 8.20777ZM218.528 13.2868V26.0685H214.602V13.2868H218.528Z" fill="#468341"/>
<path d="M232.864 14.6157C233.723 15.5912 234.161 16.9366 234.161 18.6521V26.0688H230.236V19.1061C230.236 18.2484 230.017 17.5757 229.562 17.1048C229.107 16.6171 228.517 16.3816 227.759 16.3816C226.967 16.3816 226.327 16.6339 225.872 17.1384C225.401 17.643 225.165 18.3662 225.165 19.2911V26.0688H221.239V13.2871H225.165V15.6248C225.535 14.868 226.074 14.2626 226.799 13.8085C227.523 13.3712 228.383 13.1357 229.36 13.1357C230.825 13.1526 231.988 13.6403 232.864 14.6157Z" fill="#468341"/>
<path d="M244 22.7045V26.0681H242.231C240.732 26.0681 239.569 25.6981 238.727 24.9581C237.884 24.2181 237.48 22.9904 237.48 21.2749V16.5827H235.762V13.2864H237.48V10.1582H241.406V13.2864H243.983V16.5827H241.406V21.3422C241.406 21.8467 241.507 22.1999 241.709 22.4017C241.911 22.6035 242.265 22.7045 242.753 22.7045H244Z" fill="#468341"/>
<path d="M50.576 29.5156V30.6593H45.7746V34.4433H49.8348V35.5533H45.7746V40.4642H44.3594V29.5156H50.576Z" fill="#D96A25"/>
<path d="M58.3429 32.3583C58.9831 32.7115 59.5054 33.216 59.876 33.8719C60.2467 34.5278 60.432 35.3182 60.432 36.2096C60.432 37.101 60.2467 37.8746 59.876 38.5305C59.5054 39.1864 59 39.6909 58.3429 40.0441C57.7027 40.3973 56.9614 40.5655 56.1359 40.5655C55.3104 40.5655 54.586 40.3973 53.9289 40.0441C53.2887 39.6909 52.7664 39.1864 52.3958 38.5305C52.0252 37.8746 51.8398 37.101 51.8398 36.2096C51.8398 35.3182 52.0252 34.5446 52.3958 33.8719C52.7664 33.216 53.2719 32.6946 53.9289 32.3583C54.5691 32.0051 55.3104 31.8369 56.1359 31.8369C56.9614 31.8369 57.6859 32.0219 58.3429 32.3583ZM54.7207 33.4178C54.2827 33.6533 53.9458 33.9896 53.6762 34.4605C53.4066 34.9314 53.2719 35.5201 53.2719 36.2096C53.2719 36.8991 53.4066 37.471 53.6762 37.9419C53.9458 38.4128 54.2827 38.7659 54.7207 38.9846C55.1588 39.22 55.6136 39.3209 56.1359 39.3209C56.6413 39.3209 57.1131 39.2032 57.5511 38.9846C57.9891 38.7491 58.3261 38.4128 58.5956 37.9419C58.8652 37.471 59 36.8991 59 36.2096C59 35.5201 58.8652 34.9314 58.5956 34.4605C58.3261 33.9896 57.9891 33.6364 57.5511 33.4178C57.1131 33.1824 56.6582 33.0814 56.1359 33.0814C55.6305 33.0814 55.1588 33.1992 54.7207 33.4178Z" fill="#D96A25"/>
<path d="M69.866 31.9551V40.4818H68.4508V38.4805C68.2318 39.17 67.8443 39.7082 67.2883 40.0782C66.7324 40.4482 66.0922 40.6332 65.3509 40.6332C64.3569 40.6332 63.5651 40.3136 62.9586 39.6746C62.3521 39.0355 62.0488 38.1273 62.0488 36.9332V31.9551H63.464V36.7819C63.464 37.6228 63.683 38.2787 64.121 38.7496C64.5591 39.2036 65.1487 39.4391 65.89 39.4391C66.665 39.4391 67.2883 39.1868 67.7601 38.6823C68.2318 38.1777 68.4677 37.4546 68.4677 36.4791V31.9551H69.866Z" fill="#D96A25"/>
<path d="M79.0483 32.7618C79.6548 33.4009 79.958 34.3259 79.958 35.5199V40.4812H78.5429V35.6545C78.5429 34.8136 78.3238 34.1577 77.8858 33.7036C77.4478 33.2495 76.8581 33.014 76.1168 33.014C75.3419 33.014 74.7185 33.2663 74.2468 33.7709C73.7751 34.2754 73.5392 34.9986 73.5392 35.974V40.4981H72.124V31.9545H73.5392V33.9727C73.7582 33.2831 74.1457 32.745 74.7017 32.375C75.2576 32.005 75.8978 31.82 76.6223 31.82C77.6163 31.8031 78.4249 32.1227 79.0483 32.7618Z" fill="#D96A25"/>
<path d="M87.7413 32.4589C88.3141 32.8793 88.7185 33.4343 88.9543 34.1239V28.9775H90.3695V40.4811H88.9543V38.3115C88.7185 39.0011 88.331 39.5561 87.7413 39.9765C87.1685 40.397 86.4609 40.5988 85.6354 40.5988C84.8773 40.5988 84.2034 40.4306 83.6137 40.0774C83.0241 39.7243 82.5523 39.2197 82.2154 38.5638C81.8784 37.9079 81.71 37.1343 81.71 36.2429C81.71 35.3516 81.8784 34.5779 82.2154 33.9052C82.5523 33.2493 83.0241 32.728 83.6137 32.3916C84.2034 32.0384 84.8773 31.8702 85.6354 31.8702C86.4609 31.8366 87.1685 32.0384 87.7413 32.4589ZM83.9507 33.922C83.4284 34.477 83.1588 35.2338 83.1588 36.2093C83.1588 37.1847 83.4284 37.9415 83.9507 38.4965C84.4729 39.0515 85.1637 39.3206 86.0397 39.3206C86.5957 39.3206 87.1011 39.1861 87.5391 38.9338C87.9772 38.6815 88.331 38.3115 88.5668 37.8406C88.8195 37.3697 88.9375 36.8147 88.9375 36.2093C88.9375 35.6038 88.8195 35.032 88.5668 34.5611C88.3141 34.0902 87.9772 33.7202 87.5391 33.468C87.1011 33.2157 86.5957 33.0811 86.0397 33.0811C85.1637 33.098 84.4729 33.367 83.9507 33.922Z" fill="#D96A25"/>
<path d="M98.2374 32.4594C98.8102 32.8799 99.2145 33.4349 99.4504 34.1244V31.9549H100.866V40.4816H99.4504V38.3121C99.2145 39.0016 98.8271 39.5566 98.2374 39.9771C97.6646 40.3975 96.957 40.5993 96.1315 40.5993C95.3734 40.5993 94.6995 40.4312 94.1098 40.078C93.5201 39.7248 93.0484 39.2203 92.7115 38.5644C92.3745 37.9085 92.2061 37.1348 92.2061 36.2435C92.2061 35.3521 92.3745 34.5785 92.7115 33.9058C93.0484 33.2499 93.5201 32.7285 94.1098 32.3922C94.6995 32.039 95.3734 31.8708 96.1315 31.8708C96.957 31.8372 97.6646 32.039 98.2374 32.4594ZM94.4299 33.9226C93.9076 34.4776 93.6381 35.2344 93.6381 36.2098C93.6381 37.1853 93.9076 37.9421 94.4299 38.4971C94.9522 39.0521 95.6429 39.3212 96.519 39.3212C97.0749 39.3212 97.5804 39.1866 98.0184 38.9344C98.4564 38.6821 98.8102 38.3121 99.0461 37.8412C99.2988 37.3703 99.4167 36.8153 99.4167 36.2098C99.4167 35.6044 99.2988 35.0326 99.0461 34.5617C98.7934 34.0908 98.4564 33.7208 98.0184 33.4685C97.5804 33.2162 97.0749 33.0817 96.519 33.0817C95.6598 33.0985 94.969 33.3676 94.4299 33.9226Z" fill="#D96A25"/>
<path d="M107.183 39.2365V40.481H106.139C105.262 40.481 104.622 40.2792 104.184 39.8587C103.746 39.4383 103.544 38.7487 103.544 37.7733V33.182H102.264V31.9542H103.544V29.8184H104.976V31.9542H107.183V33.182H104.959V37.8069C104.959 38.3619 105.06 38.7319 105.262 38.9337C105.465 39.1355 105.818 39.2365 106.307 39.2365H107.183Z" fill="#D96A25"/>
<path d="M108.936 28.8097C109.104 28.6415 109.34 28.5742 109.643 28.5742C109.93 28.5742 110.165 28.6583 110.351 28.8097C110.519 28.9779 110.62 29.1797 110.62 29.4319C110.62 29.6842 110.536 29.9028 110.351 30.0542C110.182 30.2224 109.946 30.2897 109.643 30.2897C109.357 30.2897 109.121 30.2056 108.936 30.0542C108.767 29.886 108.666 29.6842 108.666 29.4319C108.666 29.1797 108.75 28.9779 108.936 28.8097ZM110.334 31.9546V40.4814H108.919V31.9546H110.334Z" fill="#D96A25"/>
<path d="M118.673 32.3583C119.313 32.7115 119.835 33.216 120.206 33.8719C120.577 34.5278 120.762 35.3182 120.762 36.2096C120.762 37.101 120.577 37.8746 120.206 38.5305C119.835 39.1864 119.33 39.6909 118.673 40.0441C118.033 40.3973 117.291 40.5655 116.466 40.5655C115.64 40.5655 114.916 40.3973 114.259 40.0441C113.619 39.6909 113.097 39.1864 112.726 38.5305C112.355 37.8746 112.17 37.101 112.17 36.2096C112.17 35.3182 112.355 34.5446 112.726 33.8719C113.097 33.216 113.602 32.6946 114.259 32.3583C114.899 32.0051 115.64 31.8369 116.466 31.8369C117.291 31.8369 118.033 32.0219 118.673 32.3583ZM115.068 33.4178C114.63 33.6533 114.293 33.9896 114.023 34.4605C113.754 34.9314 113.619 35.5201 113.619 36.2096C113.619 36.8991 113.754 37.471 114.023 37.9419C114.293 38.4128 114.63 38.7659 115.068 38.9846C115.506 39.22 115.961 39.3209 116.483 39.3209C116.988 39.3209 117.46 39.2032 117.898 38.9846C118.336 38.7491 118.673 38.4128 118.943 37.9419C119.212 37.471 119.347 36.8991 119.347 36.2096C119.347 35.5201 119.212 34.9314 118.943 34.4605C118.673 33.9896 118.336 33.6364 117.898 33.4178C117.46 33.1824 117.005 33.0814 116.483 33.0814C115.977 33.0814 115.506 33.1992 115.068 33.4178Z" fill="#D96A25"/>
<path d="M129.523 32.7618C130.129 33.4009 130.433 34.3259 130.433 35.5199V40.4812H129.017V35.6545C129.017 34.8136 128.798 34.1577 128.36 33.7036C127.922 33.2495 127.333 33.014 126.591 33.014C125.816 33.014 125.193 33.2663 124.721 33.7709C124.25 34.2754 124.014 34.9986 124.014 35.974V40.4981H122.599V31.9545H124.014V33.9727C124.233 33.2831 124.62 32.745 125.176 32.375C125.732 32.005 126.372 31.82 127.097 31.82C128.108 31.8031 128.9 32.1227 129.523 32.7618Z" fill="#D96A25"/>
</g>
<defs>
<clipPath id="clip0_73_154">
<rect width="244" height="50" fill="white"/>
</clipPath>
</defs>
</svg>
